<svg width="711" height="125" viewBox="0 0 711 125" fill="none" xmlns="http://www.w3.org/2000/svg">
<path d="M158.465 19.5973H248.963V0.250363H158.465V19.5973Z" fill="white"/>
<path d="M158.466 19.6047L138.932 19.6101V105.191L161.155 124.725H248.964V105.191H158.466V72.5523H248.964V53.1145H158.466V19.6047Z" fill="white"/>
<path d="M96.2484 105.19H19.3309V19.6088H96.2484V105.19ZM0 0V105.19H19.3309V124.724H101.245L115.83 105.19L115.836 19.6088L96.2965 0H0Z" fill="white"/>
<path d="M552.432 0.251229H486.497L465.397 19.6088V53.3431L484.931 53.4179V19.5982H552.432V53.7653H496.983L484.931 53.4179L465.477 72.551V124.724H484.931V73.2939L552.432 72.551V124.724H572.308L571.918 14.2537L552.432 0.251229Z" fill="white"/>
<path d="M710.176 19.5986V0.251686H620.218L598.407 19.5986V36.4657L598.226 72.1988L598.589 72.5515H690.663V105.222H709.946L710.176 72.5515L690.663 53.1885H617.76V19.5986H710.176Z" fill="white"/>
<path d="M598.424 124.724H690.664L690.663 105.222H598.424V124.724Z" fill="white"/>
<path d="M274.046 124.724H299.277V19.6088H274.233L274.046 124.724Z" fill="white"/>
<path d="M343.822 0.251229H299.153L299.276 19.6088V19.5982H343.822V124.724H368.705V19.6088L343.822 0.251229Z" fill="white"/>
<path d="M368.704 0.00125122V19.6101H413.255V124.725H438.133V19.6101L413.255 0.00125122H368.704Z" fill="white"/>
</svg>
