<svg width="714" height="195" viewBox="0 0 714 195" fill="none" xmlns="http://www.w3.org/2000/svg">
<g clip-path="url(#clip0_775_246)">
<path d="M161.465 19.5973H251.963V0.250359H161.465V19.5973Z" fill="black"/>
<path d="M161.466 19.6047L141.932 19.6101V105.191L164.155 124.725H251.964V105.191H161.466V72.5523H251.964V53.1145H161.466V19.6047Z" fill="black"/>
<path d="M99.2484 105.19H22.3309V19.6088H99.2484V105.19ZM3 -7.62939e-06V105.19H22.3309V124.724H104.245L118.83 105.19L118.836 19.6088L99.2965 -7.62939e-06H3Z" fill="black"/>
<path d="M555.432 0.251221H489.497L468.397 19.6088V53.3431L487.931 53.4179V19.5982H555.432V53.7653H499.983L487.931 53.4179L468.477 72.551V124.724H487.931V73.2939L555.432 72.551V124.724H575.308L574.918 14.2537L555.432 0.251221Z" fill="black"/>
<path d="M713.176 19.5986V0.251678H623.218L601.407 19.5986V36.4657L601.226 72.1988L601.589 72.5515H693.663V105.222H712.946L713.176 72.5515L693.663 53.1885H620.76V19.5986H713.176Z" fill="black"/>
<path d="M601.424 124.724H693.664V105.222H601.424V124.724Z" fill="black"/>
<path d="M277.046 124.724H302.277V19.6088H277.233L277.046 124.724Z" fill="black"/>
<path d="M346.822 0.251221H302.153L302.276 19.6088V19.5982H346.822V124.724H371.705V19.6088L346.822 0.251221Z" fill="black"/>
<path d="M371.704 0.00124359V19.6101H416.255V124.725H441.133V19.6101L416.255 0.00124359H371.704Z" fill="black"/>
<path d="M2.87988 185V156.8H21.5999V159.92H6.51988V170.04H19.8399V173.12H6.51988V185H2.87988ZM25.8665 167.88C25.8665 166 26.7865 165.12 28.6665 165.12H39.9065V168.16H29.4265V185H25.8665V167.88ZM42.5061 174.8C42.5061 168.36 46.3461 164.72 52.0261 164.72C57.9061 164.72 61.7461 168.28 61.7461 174.44V175.72H45.9461C46.0661 179.6 48.1061 182.56 52.2261 182.56C55.6261 182.56 57.6261 180.8 58.3061 178.04H61.8262C61.0261 181.72 58.3861 185.4 52.2661 185.4C45.7861 185.4 42.5061 180.68 42.5061 174.8ZM45.9861 173.2H58.2661C58.0261 169.6 55.5861 167.52 52.0261 167.52C48.7461 167.52 46.2661 169.6 45.9861 173.2ZM66.7437 174.8C66.7437 168.36 70.5837 164.72 76.2637 164.72C82.1437 164.72 85.9837 168.28 85.9837 174.44V175.72H70.1837C70.3037 179.6 72.3437 182.56 76.4637 182.56C79.8637 182.56 81.8637 180.8 82.5437 178.04H86.0637C85.2637 181.72 82.6237 185.4 76.5037 185.4C70.0237 185.4 66.7437 180.68 66.7437 174.8ZM70.2237 173.2H82.5037C82.2637 169.6 79.8237 167.52 76.2637 167.52C72.9837 167.52 70.5037 169.6 70.2237 173.2ZM89.4893 185V181.96H95.0493V158.64H90.8893V155.6H96.5293C97.8493 155.6 98.6093 156.28 98.6093 157.6V181.96H104.169V185H89.4893ZM108.031 179.48C108.031 176.32 109.951 174.12 114.671 173.68L122.471 172.92C122.311 169.32 120.671 167.6 117.151 167.6C114.391 167.6 112.311 168.88 111.991 172.2H108.471C108.911 167.68 111.951 164.72 117.111 164.72C122.911 164.72 126.031 168.28 126.031 173.52V181.96H128.951V185H125.311C123.791 185 122.911 184.12 122.911 182.6V181.64L123.471 179.52H122.471C121.711 182.56 119.591 185.4 114.751 185.4C108.911 185.4 108.031 181.56 108.031 179.48ZM111.551 179.04C111.551 181.32 113.031 182.48 115.311 182.48C119.631 182.48 122.471 179.44 122.471 175.44L115.271 176.2C112.831 176.44 111.551 177.12 111.551 179.04ZM133.459 185V165.12H137.019V168.44L136.419 170.84H137.419C138.219 167.24 140.739 164.72 145.059 164.72C149.579 164.72 152.539 167.36 152.539 172.96V185H149.019V173.44C149.019 169.32 147.419 167.76 144.059 167.76C139.899 167.76 137.019 170.92 137.019 176.28V185H133.459ZM157.756 175.04C157.756 169.24 161.516 164.72 167.956 164.72C171.956 164.72 176.876 166.96 177.356 172.72H173.796C173.236 169.08 170.836 167.76 167.956 167.76C163.476 167.76 161.276 171.04 161.276 175.04C161.276 179.08 163.476 182.36 167.956 182.36C170.836 182.36 173.236 181.04 173.796 177.4H177.356C176.876 183.16 171.956 185.4 167.956 185.4C161.516 185.4 157.756 180.88 157.756 175.04ZM182.15 174.8C182.15 168.36 185.99 164.72 191.67 164.72C197.55 164.72 201.39 168.28 201.39 174.44V175.72H185.59C185.71 179.6 187.75 182.56 191.87 182.56C195.27 182.56 197.27 180.8 197.95 178.04H201.47C200.67 181.72 198.03 185.4 191.91 185.4C185.43 185.4 182.15 180.68 182.15 174.8ZM185.63 173.2H197.91C197.67 169.6 195.23 167.52 191.67 167.52C188.39 167.52 185.91 169.6 185.63 173.2ZM219.517 165.12H222.877L227.237 181.24L227.197 184H228.117L232.037 165.12H239.317L243.197 184H244.157L244.077 181.24L248.397 165.12H251.797L246.517 185H239.997L236.157 166.08H235.157L231.317 185H224.677L219.517 165.12ZM255.409 174.8C255.409 168.36 259.249 164.72 264.929 164.72C270.809 164.72 274.649 168.28 274.649 174.44V175.72H258.849C258.969 179.6 261.009 182.56 265.129 182.56C268.529 182.56 270.529 180.8 271.209 178.04H274.729C273.929 181.72 271.289 185.4 265.169 185.4C258.689 185.4 255.409 180.68 255.409 174.8ZM258.889 173.2H271.169C270.929 169.6 268.489 167.52 264.929 167.52C261.649 167.52 259.169 169.6 258.889 173.2ZM280.291 185V155.6H283.851V167.88L283.251 170.24H284.251C285.091 167.16 287.731 164.72 292.291 164.72C298.091 164.72 301.691 169.16 301.691 175.04C301.691 180.92 298.091 185.4 292.291 185.4C287.731 185.4 285.091 182.92 284.251 179.84H283.251L283.851 182.24V185H280.291ZM283.851 175.04C283.851 180.16 287.091 182.36 291.131 182.36C295.211 182.36 298.171 180.16 298.171 175.04C298.171 169.92 295.211 167.76 291.131 167.76C287.091 167.76 283.851 169.92 283.851 175.04ZM315.981 185.4C310.181 185.4 306.541 180.92 306.541 175.04C306.541 169.16 310.181 164.72 315.981 164.72C320.541 164.72 323.141 167.16 324.021 170.24H325.021L324.421 167.88V155.6H327.941V185H324.421V182.24L325.021 179.84H324.021C323.141 182.92 320.541 185.4 315.981 185.4ZM310.101 175.04C310.101 180.16 313.061 182.36 317.101 182.36C321.141 182.36 324.421 180.16 324.421 175.04C324.421 169.92 321.141 167.76 317.101 167.76C313.061 167.76 310.101 169.92 310.101 175.04ZM333.591 174.8C333.591 168.36 337.431 164.72 343.111 164.72C348.991 164.72 352.831 168.28 352.831 174.44V175.72H337.031C337.151 179.6 339.191 182.56 343.311 182.56C346.711 182.56 348.711 180.8 349.391 178.04H352.911C352.111 181.72 349.471 185.4 343.351 185.4C336.871 185.4 333.591 180.68 333.591 174.8ZM337.071 173.2H349.351C349.111 169.6 346.671 167.52 343.111 167.52C339.831 167.52 337.351 169.6 337.071 173.2ZM366.712 185.4C360.792 185.4 357.352 182.6 357.352 177.68H360.912C360.912 180.96 363.072 182.6 366.752 182.6C369.552 182.6 370.992 181.72 370.992 179.68C370.992 178.32 370.152 177.52 368.072 176.96L362.752 175.4C360.512 174.76 358.152 173.32 358.152 170.16C358.152 166.68 361.032 164.72 365.752 164.72C370.872 164.72 374.072 167.08 374.072 171.4H370.512C370.512 168.76 368.832 167.48 365.792 167.48C363.232 167.48 361.672 168.36 361.672 170.12C361.672 171.4 362.552 172.2 364.512 172.76L369.152 174.08C372.512 175.04 374.552 176.68 374.552 179.76C374.552 183.36 371.832 185.4 366.712 185.4ZM378.747 185V181.96H384.267V168.16H380.147V165.12H385.307C386.747 165.12 387.547 165.8 387.547 167.44V181.96H393.107V185H378.747ZM382.667 159.04C382.667 157.48 383.907 156.36 385.467 156.36C387.067 156.36 388.347 157.48 388.347 159.04C388.347 160.6 387.067 161.72 385.467 161.72C383.907 161.72 382.667 160.6 382.667 159.04ZM405.47 185.4C399.67 185.4 396.03 180.92 396.03 175.04C396.03 169.16 399.67 164.72 405.47 164.72C410.03 164.72 412.63 167.16 413.51 170.24H414.51L413.91 167.88V165.12H417.43V190.32C417.43 191.92 416.55 192.76 414.67 192.76H399.47V189.72H413.87V185H413.91V182.24L414.51 179.84H413.51C412.63 182.92 410.03 185.4 405.47 185.4ZM399.59 175.04C399.59 180.16 402.55 182.36 406.59 182.36C410.63 182.36 413.91 180.16 413.91 175.04C413.91 169.92 410.63 167.76 406.59 167.76C402.55 167.76 399.59 169.92 399.59 175.04ZM423.333 185V165.12H426.893V168.44L426.293 170.84H427.293C428.093 167.24 430.613 164.72 434.933 164.72C439.453 164.72 442.413 167.36 442.413 172.96V185H438.893V173.44C438.893 169.32 437.293 167.76 433.933 167.76C429.773 167.76 426.893 170.92 426.893 176.28V185H423.333ZM447.63 174.8C447.63 168.36 451.47 164.72 457.15 164.72C463.03 164.72 466.87 168.28 466.87 174.44V175.72H451.07C451.19 179.6 453.23 182.56 457.35 182.56C460.75 182.56 462.75 180.8 463.43 178.04H466.95C466.15 181.72 463.51 185.4 457.39 185.4C450.91 185.4 447.63 180.68 447.63 174.8ZM451.11 173.2H463.39C463.15 169.6 460.71 167.52 457.15 167.52C453.87 167.52 451.39 169.6 451.11 173.2ZM472.551 167.88C472.551 166 473.471 165.12 475.351 165.12H486.591V168.16H476.111V185H472.551V167.88Z" fill="black"/>
</g>
<defs>
<clipPath id="clip0_775_246">
<rect width="714" height="195" fill="white"/>
</clipPath>
</defs>
</svg>
